<?xml version="1.0" encoding="UTF-8" standalone="no"?>
<svg
   width="191.99223"
   height="192.03366"
   viewBox="0 0 17.999272 18.003155"
   fill="#e26d2d"
   version="1.1"
   id="svg2"
   sodipodi:docname="apllybrasil.svg"
   xmlns:inkscape="http://www.inkscape.org/namespaces/inkscape"
   xmlns:sodipodi="http://sodipodi.sourceforge.net/DTD/sodipodi-0.dtd"
   xmlns="http://www.w3.org/2000/svg"
   xmlns:svg="http://www.w3.org/2000/svg">
  <defs
     id="defs2" />
  <sodipodi:namedview
     id="namedview2"
     pagecolor="#ffffff"
     bordercolor="#000000"
     borderopacity="0.25"
     inkscape:showpageshadow="2"
     inkscape:pageopacity="0.0"
     inkscape:pagecheckerboard="0"
     inkscape:deskcolor="#d1d1d1">
    <inkscape:page
       x="0"
       y="1.1069225e-15"
       width="17.999271"
       height="18.003155"
       id="page2"
       margin="0"
       bleed="0" />
  </sodipodi:namedview>
  <path
     d="M 15.5,1.8043657e-4 A 2.5,2.5 0 1 1 14.588,4.8281805 l -4.556,4.555 a 5.475,5.475 0 0 1 0.936,3.7139995 l 2.624,0.787 a 2.5,2.5 0 1 1 -0.575,1.916 l -2.623,-0.788 a 5.5,5.5 0 0 1 -10.38999998,-2.29 L 2.1724308e-8,12.50018 0.00400002,12.27918 A 5.5,5.5 0 0 1 2.988,7.6061805 l -0.788,-2.624 a 2.498,2.498 0 0 1 -2.19399998,-2.304 L 2.1724308e-8,2.5001805 0.00500002,2.3361805 A 2.5,2.5 0 1 1 4.116,4.4071805 l 0.787,2.625 a 5.475,5.475 0 0 1 3.714,0.936 l 4.555,-4.556 a 2.487,2.487 0 0 1 -0.167,-0.748 l -0.005,-0.164 0.005,-0.164 A 2.5,2.5 0 0 1 15.5,1.8043657e-4 Z"
     id="path2" />
</svg>
