<svg width="125" height="54" viewBox="0 0 125 54" fill="none" xmlns="http://www.w3.org/2000/svg">
<mask id="mask0_100_572" style="mask-type:luminance" maskUnits="userSpaceOnUse" x="0" y="0" width="125" height="54">
<path d="M0 0H125V53.4697H0V0Z" fill="white"/>
</mask>
<g mask="url(#mask0_100_572)">
<path fill-rule="evenodd" clip-rule="evenodd" d="M124.91 34.6554C124.554 35.4947 123.961 35.8347 123.042 36.0351C111.074 38.6463 100.425 36.1702 91.3776 27.8649C89.6211 26.2528 88.2851 24.1946 86.7382 22.3558C85.7763 21.2119 84.8369 20.0434 83.7951 18.9728C80.5062 15.594 76.6069 14.8646 72.205 16.4968C68.6752 17.805 65.6533 19.9473 62.6997 22.1898C56.2812 27.0634 49.8002 31.8496 42.7887 35.8754C37.2672 39.0459 31.4551 41.514 25.1015 42.5055C19.2945 43.4118 13.5507 43.2933 8.07389 40.875C3.59258 38.8965 0.842293 35.5737 0.272429 30.637C0.260846 30.5414 0.0900032 29.4565 0.0830536 29.2395C-0.0877896 27.5587 0.0361442 26.5837 0.175135 25.429C0.326867 24.3681 0.517401 23.2603 0.756002 22.188C2.04457 16.3972 4.71609 11.2235 8.16307 6.43737C9.72904 4.26358 11.5463 2.26613 13.2496 0.189077C13.6405 -0.181328 14.2613 0.108922 14.2306 0.0963439C14.5028 0.249763 14.6418 0.356827 14.7217 0.425531C15.6171 1.19611 16.0659 2.42356 15.0785 3.572C12.0073 7.14383 9.27384 10.9407 7.31117 15.2276C5.4261 19.3456 4.05357 23.6239 3.87809 28.1741C3.74547 31.616 4.68019 34.6817 7.87409 36.6036C10.351 38.0938 13.0689 38.9457 15.9501 39.2755C22.1763 39.9888 28.0179 38.506 33.7114 36.2109C40.266 33.5688 46.0874 29.6952 51.7918 25.6316C55.9824 22.6466 60.1359 19.6101 64.3641 16.6788C66.9059 14.9167 69.6354 13.4557 72.6492 12.6089C78.0206 11.0998 82.6589 12.396 86.4157 16.4252C88.4924 18.6523 90.279 21.1409 92.2869 23.4344C97.2211 29.0712 103.536 32.1776 110.963 33.1285C114.656 33.602 118.325 33.3867 121.944 32.469C123.702 32.023 124.137 32.232 124.936 33.8373C125.035 34.0686 125.013 34.4333 124.91 34.6554Z" fill="white"/>
</g>
<mask id="mask1_100_572" style="mask-type:luminance" maskUnits="userSpaceOnUse" x="0" y="0" width="125" height="54">
<path d="M0 0H125V53.4697H0V0Z" fill="white"/>
</mask>
<g mask="url(#mask1_100_572)">
<path fill-rule="evenodd" clip-rule="evenodd" d="M73.1008 44.5371V49.4311C73.1008 50.8436 73.6819 51.5501 74.8453 51.5501C76.0087 51.5501 76.5909 50.8436 76.5909 49.4311V44.5371H78.6465V49.475C78.6465 50.1579 78.5579 50.7471 78.3812 51.2431C78.2107 51.6871 77.9156 52.0867 77.4952 52.4429C76.8008 53.0206 75.9172 53.3095 74.8453 53.3095C73.7797 53.3095 72.8995 53.0206 72.2052 52.4429C71.779 52.0867 71.4776 51.6871 71.3009 51.2431C71.1304 50.8469 71.0452 50.2571 71.0452 49.475V44.5371H73.1008Z" fill="white"/>
</g>
<mask id="mask2_100_572" style="mask-type:luminance" maskUnits="userSpaceOnUse" x="0" y="0" width="125" height="54">
<path d="M0 0H125V53.4697H0V0Z" fill="white"/>
</mask>
<g mask="url(#mask2_100_572)">
<path fill-rule="evenodd" clip-rule="evenodd" d="M81.1804 44.7736H83.2686V45.5362C83.6521 45.1565 83.9926 44.8965 84.2895 44.756C84.5923 44.6101 84.9514 44.5371 85.3662 44.5371C85.9171 44.5371 86.4923 44.7066 87.0925 45.0452L86.1367 46.8508C85.7404 46.5819 85.3535 46.4475 84.9764 46.4475C83.8381 46.4475 83.2686 47.2595 83.2686 48.8841V53.3095H81.1804V44.7736Z" fill="white"/>
</g>
<mask id="mask3_100_572" style="mask-type:luminance" maskUnits="userSpaceOnUse" x="0" y="0" width="125" height="54">
<path d="M0 0H125V53.4697H0V0Z" fill="white"/>
</mask>
<g mask="url(#mask3_100_572)">
<path fill-rule="evenodd" clip-rule="evenodd" d="M95.428 48.8971C95.428 48.0574 95.2008 47.3726 94.7471 46.8452C94.2873 46.3047 93.7107 46.0348 93.0181 46.0348C92.2778 46.0348 91.6744 46.2957 91.2089 46.8181C90.7485 47.3338 90.5191 48.0061 90.5191 48.8345C90.5191 49.6866 90.7457 50.3674 91.1994 50.8774C91.6537 51.3998 92.2509 51.6607 92.9912 51.6607C93.69 51.6607 94.2693 51.3998 94.7292 50.8774C95.1952 50.3493 95.428 49.6894 95.428 48.8971ZM90.6358 38.0137V45.4678C91.4417 44.6276 92.3552 44.2072 93.3765 44.2072C94.5531 44.2072 95.5323 44.6484 96.3146 45.5304C97.097 46.4067 97.4884 47.4989 97.4884 48.8075C97.4884 50.1572 97.0942 51.2736 96.3057 52.1561C95.5233 53.0319 94.5351 53.4698 93.3406 53.4698C92.3311 53.4698 91.4293 53.0798 90.6358 52.2998V53.2178H88.6202V38.0137H90.6358Z" fill="white"/>
</g>
<mask id="mask4_100_572" style="mask-type:luminance" maskUnits="userSpaceOnUse" x="0" y="0" width="125" height="54">
<path d="M0 0H125V53.4697H0V0Z" fill="white"/>
</mask>
<g mask="url(#mask4_100_572)">
<path fill-rule="evenodd" clip-rule="evenodd" d="M101.013 48.8437C101.013 49.677 101.227 50.3554 101.656 50.8785C102.095 51.4083 102.649 51.6732 103.317 51.6732C104.031 51.6732 104.607 51.4178 105.047 50.9053C105.487 50.3761 105.706 49.7038 105.706 48.8884C105.706 48.073 105.487 47.4007 105.047 46.8709C104.607 46.3528 104.037 46.0941 103.334 46.0941C102.672 46.0941 102.118 46.3562 101.673 46.8798C101.233 47.4091 101.013 48.0641 101.013 48.8437ZM105.587 44.5231H107.522V53.2179H105.587V52.307C104.793 53.081 103.94 53.4677 103.026 53.4677C101.872 53.4677 100.919 53.0335 100.166 52.1645C99.4179 51.2776 99.0436 50.171 99.0436 48.8437C99.0436 47.5404 99.4179 46.4545 100.166 45.5849C100.914 44.7165 101.85 44.2822 102.975 44.2822C103.945 44.2822 104.816 44.6986 105.587 45.5318V44.5231Z" fill="white"/>
</g>
<mask id="mask5_100_572" style="mask-type:luminance" maskUnits="userSpaceOnUse" x="0" y="0" width="125" height="54">
<path d="M0 0H125V53.4697H0V0Z" fill="white"/>
</mask>
<g mask="url(#mask5_100_572)">
<path fill-rule="evenodd" clip-rule="evenodd" d="M109.797 44.7736H111.845V45.5625C112.558 44.8789 113.361 44.5371 114.255 44.5371C115.282 44.5371 116.082 44.8498 116.656 45.4748C117.151 46.0064 117.399 46.8738 117.399 48.0776V53.3095H115.352V48.5423C115.352 47.7006 115.231 47.1191 114.989 46.7981C114.754 46.4711 114.324 46.3076 113.702 46.3076C113.025 46.3076 112.546 46.5232 112.262 46.9561C111.984 47.3824 111.845 48.1275 111.845 49.1908V53.3095H109.797V44.7736Z" fill="white"/>
</g>
</svg>
